<?xml version="1.0" standalone="no"?>
<!DOCTYPE svg PUBLIC "-//W3C//DTD SVG 20010904//EN"
 "http://www.w3.org/TR/2001/REC-SVG-20010904/DTD/svg10.dtd">
<svg version="1.0" xmlns="http://www.w3.org/2000/svg"
 width="165.000000pt" height="165.000000pt" viewBox="0 0 165.000000 165.000000"
 preserveAspectRatio="xMidYMid meet">
<metadata>
Created by potrace 1.14, written by Peter Selinger 2001-2017
</metadata>
<g transform="translate(0.000000,165.000000) scale(0.100000,-0.100000)"
fill="#000000" stroke="none">
<path d="M600 1567 l0 -88 -47 -21 c-170 -75 -307 -233 -371 -426 -21 -65 -25
-97 -26 -206 l-1 -130 -60 -38 c-33 -20 -61 -41 -62 -45 -2 -4 33 -7 77 -6 55
1 80 -2 80 -10 1 -22 71 -151 107 -196 107 -133 240 -214 404 -247 65 -12 197
-13 217 0 12 7 34 -18 60 -69 11 -22 27 -49 36 -60 14 -19 15 -16 15 35 -2
123 -7 112 79 156 91 46 217 165 270 256 40 67 78 174 88 243 8 60 9 184 1
217 -6 22 2 29 67 69 l74 44 -85 5 -85 5 -19 48 c-76 194 -275 358 -484 398
-55 11 -184 13 -227 4 -16 -3 -28 -1 -28 4 0 5 -18 40 -40 77 l-40 69 0 -88z
m383 -193 c222 -74 376 -286 382 -528 3 -108 -14 -186 -61 -282 -147 -297
-516 -400 -788 -219 -240 159 -323 471 -197 740 117 251 404 375 664 289z"/>
<path d="M705 1276 c-86 -30 -141 -61 -193 -109 -36 -35 -52 -57 -50 -72 2
-13 -9 -32 -30 -51 -23 -21 -36 -46 -47 -89 -21 -81 -19 -90 15 -107 l30 -14
-31 -23 c-35 -26 -35 -51 -3 -142 16 -43 26 -55 57 -69 32 -15 35 -19 23 -30
-20 -15 -11 -32 44 -86 22 -23 60 -47 83 -54 23 -8 50 -20 60 -29 27 -23 133
-38 205 -29 95 11 233 81 216 109 -3 5 1 9 10 9 27 0 75 50 105 112 28 56 30
63 16 78 -15 16 -14 19 12 38 25 18 28 27 31 95 4 83 -6 113 -44 128 l-25 9
20 26 c19 25 20 28 4 58 -37 72 -74 116 -106 124 -22 6 -31 14 -29 25 3 19
-54 60 -116 81 -63 22 -208 29 -257 12z"/>
<path d="M1601 879 c-15 -43 -13 -107 4 -144 12 -28 13 -23 14 73 1 56 -1 102
-3 102 -2 0 -9 -14 -15 -31z"/>
</g>
</svg>
